# xmcd CD database file
#
# Track frame offsets:
#	150
#	15572
#	33522
#	49745
#	68385
#	83122
#	97600
#	112452
#	126752
#	144690
#	161190
#	188207
#	202087
#
# Disc length: 2981 seconds
#
# Revision: 2
# Processed by: cddbd v1.4PL0 Copyright (c) Steve Scherf et al.
# Submitted via: CDex 1.51
#
DISCID=b30ba30d
DTITLE=Lifestyle - Mic Holwin - Starting To Remember
DYEAR=1986
DGENRE=New Age
TTITLE0=Brujo
TTITLE1=The Hunt
TTITLE2=Aligning The Warlock
TTITLE3=This Close
TTITLE4=Gray
TTITLE5=Amon Ra
TTITLE6=Being Swum
TTITLE7=Abandon
TTITLE8=The Bridge
TTITLE9=Burning Beyond
TTITLE10=Unbound
TTITLE11=Shaon
TTITLE12=Aviatar
EXTD=YEAR: 1986
EXTT0=
EXTT1=
EXTT2=
EXTT3=
EXTT4=
EXTT5=
EXTT6=
EXTT7=
EXTT8=
EXTT9=
EXTT10=
EXTT11=
EXTT12=
PLAYORDER=
